<svg width="135" height="29" viewBox="0 0 135 29" fill="none" xmlns="http://www.w3.org/2000/svg">
<path d="M49.8836 21.3635C49.8843 21.431 49.8707 21.4978 49.8436 21.5597C49.8166 21.6215 49.7768 21.677 49.7267 21.7224C49.632 21.8115 49.5065 21.861 49.3762 21.8604C49.2457 21.8619 49.1198 21.8124 49.0256 21.7224C48.9768 21.6765 48.9383 21.6208 48.9129 21.5589C48.8874 21.497 48.8755 21.4304 48.878 21.3635V8.96127L43.4717 15.7052L43.361 15.7788L43.2226 15.834H43.1304C43.0372 15.8376 42.9457 15.8083 42.872 15.7512C42.7965 15.6942 42.7336 15.6222 42.6875 15.5396L37.3366 8.96127V21.3635C37.3391 21.4304 37.3272 21.497 37.3017 21.5589C37.2762 21.6208 37.2378 21.6765 37.189 21.7224C37.0935 21.8103 36.9684 21.8591 36.8384 21.8591C36.7085 21.8591 36.5833 21.8103 36.4878 21.7224C36.439 21.6765 36.4006 21.6208 36.3751 21.5589C36.3497 21.497 36.3378 21.4304 36.3402 21.3635V7.56279C36.3389 7.49609 36.3513 7.42984 36.3767 7.36812C36.4021 7.3064 36.4399 7.25053 36.4878 7.20397C36.5339 7.15856 36.5887 7.12292 36.649 7.0992C36.7092 7.07548 36.7737 7.06417 36.8384 7.06597H36.9491H37.0229C37.0879 7.08687 37.1477 7.12138 37.1982 7.16717L43.1211 14.5276L49.0071 7.16717C49.0576 7.12609 49.1135 7.09205 49.1732 7.06597C49.2399 7.04995 49.3095 7.04995 49.3762 7.06597C49.4438 7.06326 49.5113 7.07408 49.5747 7.09778C49.638 7.12148 49.696 7.15759 49.7452 7.20397C49.836 7.30129 49.8856 7.42986 49.8836 7.56279V21.3635Z" fill="#034F75"/>
<path d="M49.3758 22.2469C49.1447 22.2413 48.9241 22.1493 48.7577 21.9893C48.6726 21.9088 48.6049 21.8117 48.5589 21.7041C48.5129 21.5965 48.4895 21.4806 48.4901 21.3636V10.047L43.7666 15.9445C43.7085 16.0043 43.6435 16.0568 43.5728 16.1009C43.4809 16.1596 43.3816 16.206 43.2776 16.2389H43.1115C42.9312 16.2432 42.755 16.1847 42.6133 16.0733C42.4983 15.9815 42.4013 15.8692 42.3274 15.7421L37.7145 10.0286V21.3636C37.7157 21.5368 37.6653 21.7064 37.5696 21.851C37.474 21.9956 37.3374 22.1085 37.1773 22.1755C37.0172 22.2426 36.8407 22.2607 36.6702 22.2275C36.4998 22.1943 36.343 22.1114 36.2199 21.9893C36.0573 21.821 35.9649 21.5973 35.9616 21.3636V7.56287C35.9593 7.44868 35.9801 7.3352 36.0229 7.22926C36.0658 7.12332 36.1296 7.02712 36.2107 6.94644C36.2918 6.86199 36.3891 6.79481 36.497 6.74895C36.6048 6.70309 36.7208 6.67951 36.838 6.67963H37.041L37.1886 6.74403C37.2849 6.77734 37.3729 6.83066 37.4469 6.90044L43.1208 13.9296L48.7115 7.00164C48.8003 6.91023 48.9071 6.83818 49.0252 6.79003C49.19 6.72234 49.3709 6.7037 49.5461 6.73635C49.7213 6.76901 49.8832 6.85156 50.0124 6.97404C50.0935 7.05472 50.1573 7.15092 50.2001 7.25686C50.2429 7.3628 50.2638 7.47628 50.2615 7.59048V21.3912C50.2634 21.5097 50.2406 21.6274 50.1946 21.7367C50.1485 21.8459 50.0802 21.9445 49.9939 22.0261C49.822 22.1728 49.602 22.2513 49.3758 22.2469ZM49.2559 7.87569V21.3636L49.3758 21.4832C49.3904 21.4893 49.4061 21.4924 49.4219 21.4924C49.4378 21.4924 49.4534 21.4893 49.4681 21.4832V21.4004V7.59968C49.4681 7.49847 49.4127 7.48007 49.3481 7.48007L43.0931 15.2085L36.8288 7.46167C36.7458 7.51687 36.7366 7.54447 36.7366 7.58128V21.382L36.8473 21.5016C36.8619 21.5077 36.8776 21.5108 36.8934 21.5108C36.9092 21.5108 36.9249 21.5077 36.9395 21.5016V7.94009L42.9639 15.3925C42.9932 15.452 43.034 15.5051 43.0839 15.5489L43.2038 15.4753L49.2559 7.87569Z" fill="#034F75"/>
<path d="M52.347 16.5056C52.3455 15.7662 52.493 15.0341 52.7806 14.3527C53.0569 13.6969 53.4615 13.1027 53.9707 12.6046C54.4746 12.1045 55.0695 11.7048 55.7236 11.4269C56.4014 11.1435 57.129 10.9976 57.864 10.9976C58.5989 10.9976 59.3265 11.1435 60.0043 11.4269C60.6533 11.705 61.2446 12.1012 61.748 12.5954C62.2496 13.0943 62.6505 13.6846 62.9289 14.3343C63.2241 15.0076 63.378 15.734 63.381 16.4688V21.3451C63.3814 21.4849 63.3287 21.6197 63.2333 21.7223C63.1863 21.7722 63.1289 21.8112 63.0652 21.8367C63.0014 21.8621 62.9329 21.8733 62.8643 21.8695C62.7987 21.8718 62.7333 21.8599 62.6727 21.8345C62.6122 21.809 62.5579 21.7708 62.5137 21.7223C62.428 21.6153 62.3824 21.482 62.3846 21.3451V19.6154C62.1365 19.969 61.8487 20.2932 61.5266 20.5814C61.2024 20.8785 60.843 21.1349 60.4564 21.3451C60.0696 21.5608 59.6575 21.7277 59.2294 21.8419C58.7938 21.9628 58.3438 22.0247 57.8917 22.0259C57.152 22.0306 56.4196 21.8801 55.7421 21.5843C55.088 21.3064 54.4931 20.9067 53.9892 20.4066C52.953 19.3746 52.3692 17.9752 52.3654 16.5148L52.347 16.5056ZM53.3526 16.5056C53.3521 17.1027 53.4713 17.694 53.7032 18.2445C53.9203 18.7723 54.233 19.2557 54.6257 19.6706C55.0289 20.0898 55.5119 20.4245 56.0465 20.655C56.6087 20.8963 57.215 21.0185 57.8271 21.0139C58.4252 21.0158 59.0175 20.8979 59.569 20.6671C60.1205 20.4364 60.62 20.0975 61.0376 19.6706C61.8705 18.8264 62.3376 17.6899 62.3385 16.5056C62.359 15.8962 62.2555 15.289 62.034 14.7207C61.8235 14.1867 61.5101 13.6991 61.1114 13.2854C60.6973 12.8755 60.2089 12.5477 59.6722 12.3194C59.1037 12.0776 58.4912 11.9555 57.8732 11.9606C56.9825 11.9587 56.1113 12.2199 55.3692 12.7111C54.6271 13.2023 54.0474 13.9015 53.7032 14.7207C53.4659 15.2857 53.3466 15.8931 53.3526 16.5056Z" fill="#034F75"/>
<path d="M57.8727 22.394C57.0825 22.3994 56.3 22.2395 55.5755 21.9248C54.8852 21.6263 54.2588 21.1984 53.7304 20.6643C53.196 20.1363 52.7671 19.5118 52.4664 18.8242C52.1609 18.0956 52.0036 17.3138 52.0036 16.5241C52.0036 15.7344 52.1609 14.9525 52.4664 14.2239C52.7701 13.5357 53.2021 12.9112 53.7396 12.3838C54.2686 11.8527 54.895 11.4279 55.5847 11.1326C56.3148 10.8259 57.099 10.6679 57.8912 10.6679C58.6833 10.6679 59.4675 10.8259 60.1976 11.1326C61.5986 11.7318 62.715 12.8452 63.3159 14.2423C63.6257 14.9637 63.7888 15.7393 63.7956 16.5241V21.4003C63.7997 21.6347 63.7139 21.8618 63.5557 22.0352C63.3833 22.2037 63.1514 22.2982 62.91 22.2982C62.6685 22.2982 62.4366 22.2037 62.2641 22.0352C62.1116 21.8627 62.0293 21.6395 62.0335 21.4095V20.7103C61.958 20.7885 61.8779 20.8623 61.7936 20.9311C61.4484 21.2469 61.0676 21.5217 60.6589 21.75C60.2456 21.978 59.8055 22.1542 59.3488 22.2744C58.8644 22.38 58.3679 22.4202 57.8727 22.394ZM57.8727 11.3534C57.1842 11.3463 56.502 11.4842 55.8707 11.7582C54.6197 12.279 53.6252 13.2708 53.103 14.5184C52.8334 15.1495 52.6953 15.8288 52.6971 16.5149C52.6944 17.198 52.8326 17.8745 53.103 18.5022C53.3625 19.1143 53.7384 19.6704 54.2101 20.1399C54.684 20.6064 55.2409 20.9808 55.8523 21.2439C56.8743 21.6847 58.0162 21.7658 59.0905 21.4739C59.4893 21.3679 59.8735 21.2134 60.2345 21.0139C60.5874 20.8127 60.9183 20.5753 61.2216 20.3055C61.5253 20.0321 61.7948 19.7232 62.0243 19.3854L62.7347 18.401V21.3175C62.7184 21.3621 62.7184 21.411 62.7347 21.4555C62.873 21.4555 62.8823 21.4555 62.8915 21.4555C62.8999 21.4367 62.9042 21.4163 62.9042 21.3957C62.9042 21.3751 62.8999 21.3548 62.8915 21.3359V16.4597C62.8852 15.7804 62.7474 15.1087 62.4856 14.4816C62.2541 13.8897 61.913 13.3466 61.48 12.8807C61.0132 12.4164 60.4621 12.0449 59.8562 11.7858C59.2299 11.5155 58.5551 11.3746 57.8727 11.3718V11.3534ZM57.8727 21.3727C57.2089 21.3808 56.5512 21.2458 55.9445 20.9771C55.3786 20.7336 54.8649 20.3837 54.4315 19.9467C53.98 19.5015 53.6142 18.9777 53.3521 18.401C53.1081 17.8177 52.9796 17.1928 52.9738 16.5609C52.9503 15.5844 53.222 14.6235 53.7534 13.8031C54.2849 12.9827 55.0515 12.3407 55.9538 11.9606C57.1868 11.459 58.5678 11.459 59.8009 11.9606C60.379 12.21 60.9049 12.5658 61.3508 13.0095C61.7882 13.46 62.1385 13.9871 62.3841 14.5644C62.6304 15.1815 62.7496 15.8417 62.7347 16.5057C62.731 17.1379 62.6025 17.7631 62.3564 18.3458C62.1155 18.9283 61.7648 19.4593 61.3231 19.9099C60.8776 20.3563 60.3518 20.7153 59.7732 20.9679C59.1756 21.2378 58.5286 21.3819 57.8727 21.3911V21.3727ZM57.8727 12.3562C57.3279 12.3525 56.7878 12.4571 56.284 12.6641C55.7803 12.871 55.323 13.1761 54.9389 13.5615C54.5634 13.9387 54.2656 14.3857 54.0625 14.8772C53.8413 15.3852 53.7282 15.9334 53.7304 16.4873C53.7282 17.0322 53.8414 17.5714 54.0625 18.0698C54.2656 18.5612 54.5634 19.0082 54.9389 19.3854C55.3088 19.7772 55.7545 20.0902 56.249 20.3055C56.7629 20.5216 57.315 20.6329 57.8727 20.6329C58.4304 20.6329 58.9825 20.5216 59.4964 20.3055C59.9901 20.0886 60.4354 19.7759 60.8065 19.3854C61.1957 19.0099 61.5089 18.5632 61.7291 18.0698C61.94 17.5689 62.0467 17.0305 62.0427 16.4873C62.0476 15.935 61.941 15.3874 61.7291 14.8772C61.5123 14.3818 61.1986 13.9346 60.8065 13.5615C60.4337 13.1731 59.9888 12.8606 59.4964 12.6415C58.9787 12.4444 58.4264 12.3536 57.8727 12.3746V12.3562Z" fill="#034F75"/>
<path d="M68.8702 16.6161C68.5196 16.4965 68.1598 16.3677 67.8093 16.2205C67.4772 16.073 67.1668 15.8811 66.8867 15.6501C66.614 15.4312 66.3855 15.1627 66.2132 14.8589C66.0388 14.5332 65.947 14.17 65.9457 13.8008C65.9358 13.3743 66.0376 12.9525 66.2409 12.5771C66.4402 12.2355 66.7108 11.9406 67.0343 11.7123C67.3733 11.4768 67.7512 11.3024 68.1506 11.1971C68.5666 11.0909 68.9944 11.0384 69.4238 11.0406C70.0576 11.0356 70.6857 11.1609 71.2689 11.4087C71.8221 11.6547 72.279 12.0748 72.5697 12.6047C72.6212 12.7006 72.6436 12.8092 72.6343 12.9175C72.6213 13.0108 72.5794 13.0977 72.5144 13.166C72.4741 13.2082 72.4254 13.2416 72.3713 13.2638C72.3173 13.286 72.2591 13.2965 72.2007 13.2948C72.1262 13.2961 72.0528 13.277 71.9885 13.2396C71.6989 12.8487 71.3192 12.5331 70.8814 12.3195C70.4332 12.1267 69.9486 12.0326 69.4607 12.0435C69.1509 12.0456 68.8421 12.0764 68.5381 12.1355C68.2532 12.1935 67.9792 12.296 67.7262 12.4391C67.4849 12.5727 67.2793 12.762 67.1266 12.9911C66.9639 13.2462 66.8835 13.5448 66.8959 13.8468C66.8883 14.1143 66.9554 14.3787 67.0897 14.6104C67.2311 14.8268 67.4127 15.0142 67.6247 15.1625C67.8633 15.3275 68.1242 15.4576 68.3997 15.5489C68.6949 15.6593 69.0024 15.7605 69.3223 15.8525C69.8297 16.0089 70.3187 16.1653 70.7799 16.3401C71.2113 16.5019 71.6229 16.7118 72.007 16.9658C72.3422 17.192 72.6252 17.4868 72.8373 17.8306C73.0488 18.1931 73.1543 18.6075 73.1417 19.0267C73.1393 19.4182 73.0512 19.8044 72.8834 20.1583C72.6968 20.5421 72.433 20.8834 72.1084 21.1612C71.7537 21.4402 71.3545 21.6579 70.9275 21.8052C70.468 21.9657 69.9844 22.0466 69.4976 22.0444C69.1038 22.0471 68.7109 22.007 68.3259 21.9248C67.9557 21.8544 67.596 21.7369 67.2557 21.5752C66.9193 21.4242 66.6081 21.2225 66.3331 20.9772C66.0789 20.7369 65.8696 20.4534 65.715 20.1399C65.6705 20.063 65.647 19.9757 65.647 19.8869C65.647 19.7981 65.6705 19.7108 65.715 19.6339C65.7522 19.5651 65.8086 19.5085 65.8774 19.4709C65.9461 19.4334 66.0243 19.4165 66.1025 19.4223C66.1934 19.4244 66.2828 19.4451 66.3653 19.4831C66.4478 19.5211 66.5217 19.5755 66.5822 19.6431C66.8488 20.102 67.2473 20.4706 67.7262 20.7012C68.2765 20.9601 68.8801 21.0862 69.4883 21.0692C69.827 21.0741 70.164 21.0212 70.4847 20.9128C70.795 20.8156 71.0878 20.6696 71.3519 20.4804C71.5932 20.3034 71.7944 20.0777 71.9424 19.8179C72.0897 19.5602 72.1661 19.2682 72.1638 18.9715C72.168 18.6722 72.0704 18.3803 71.887 18.1434C71.6875 17.8893 71.4399 17.6768 71.1582 17.5178C70.8298 17.31 70.4804 17.1373 70.1157 17.0026C69.7282 16.8646 69.3131 16.7358 68.8702 16.6161Z" fill="#034F75"/>
<path d="M69.4974 22.3939C69.0854 22.3953 68.6743 22.3552 68.2704 22.2743C67.8679 22.1957 67.4772 22.0658 67.1079 21.8879C66.7714 21.7141 66.4609 21.4942 66.1853 21.2347C65.9029 20.9681 65.6661 20.6573 65.4842 20.3146C65.4044 20.1827 65.3623 20.0316 65.3623 19.8776C65.3623 19.7236 65.4044 19.5725 65.4842 19.4406C65.5618 19.3332 65.6618 19.2439 65.7773 19.1786C65.8927 19.1133 66.021 19.0736 66.1532 19.0622C66.2855 19.0509 66.4186 19.0681 66.5436 19.1128C66.6685 19.1574 66.7823 19.2284 66.8773 19.321L66.9326 19.4038C67.1561 19.8034 67.4975 20.1246 67.9105 20.3238C68.4095 20.5565 68.956 20.6699 69.5066 20.655C69.8198 20.6631 70.1321 20.6164 70.4292 20.517C70.7008 20.4346 70.9565 20.307 71.1857 20.1398C71.3816 19.9913 71.5475 19.8071 71.6746 19.597C71.7884 19.3945 71.8487 19.1666 71.8499 18.9346C71.8556 18.7218 71.7871 18.5137 71.6562 18.3457C71.4817 18.1284 71.2692 17.9445 71.0288 17.8029C70.7146 17.6223 70.3841 17.4713 70.0417 17.3521C69.6634 17.2233 69.2483 17.0945 68.8147 16.9656C68.4549 16.846 68.0858 16.708 67.726 16.5608C67.3588 16.4016 67.0144 16.1943 66.702 15.9444C66.3878 15.6892 66.1248 15.377 65.927 15.0243C65.7051 14.6529 65.5783 14.2326 65.558 13.8007C65.5481 13.3047 65.6724 12.8153 65.9178 12.3838C66.1487 11.9918 66.4638 11.6556 66.8404 11.3993C67.2145 11.1363 67.6334 10.9431 68.0766 10.8289C69.2026 10.5282 70.3968 10.6091 71.4717 11.0589C72.1062 11.3298 72.6276 11.8108 72.9478 12.4206C73.0343 12.5845 73.0727 12.7695 73.0585 12.9542C73.0328 13.1263 72.9556 13.2866 72.8371 13.4143C72.717 13.5485 72.5542 13.6374 72.376 13.6659C72.1979 13.6944 72.0153 13.6608 71.8592 13.5707L71.73 13.4603C71.4932 13.1124 71.177 12.8254 70.8074 12.623C70.1452 12.3577 69.417 12.303 68.7224 12.4666C68.4768 12.5161 68.2404 12.603 68.0213 12.7242C67.8351 12.833 67.6747 12.9805 67.5507 13.1566C67.419 13.3457 67.3482 13.5704 67.3478 13.8007C67.3392 14.0012 67.3906 14.1998 67.4954 14.3711C67.6013 14.5431 67.7429 14.6905 67.9105 14.8035C68.1257 14.946 68.3582 15.0604 68.6025 15.1439C68.9041 15.2596 69.2121 15.3579 69.525 15.4384C70.0417 15.604 70.5399 15.7604 71.0104 15.9444C71.4696 16.1111 71.9065 16.3336 72.3112 16.6068C72.6854 16.862 73.0001 17.1947 73.2338 17.5821C73.483 18.0053 73.6077 18.4899 73.5936 18.9806C73.5978 19.4637 73.4838 19.9405 73.2615 20.3698C73.0338 20.7949 72.7195 21.1678 72.3389 21.4647C71.9506 21.7704 71.5141 22.0098 71.0473 22.1731C70.547 22.3343 70.0229 22.4089 69.4974 22.3939ZM66.1208 19.7718C66.0562 19.7718 66.0562 19.8454 66.1208 19.9466C66.2608 20.2172 66.4447 20.4628 66.6651 20.6734C66.8945 20.8873 67.156 21.0642 67.44 21.1979C67.7512 21.3478 68.0796 21.4591 68.418 21.5291C69.2133 21.7041 70.0409 21.666 70.8167 21.4187C71.2027 21.2913 71.5622 21.0949 71.8776 20.8391C72.1704 20.6076 72.4096 20.3157 72.5788 19.9834C72.7452 19.6622 72.8307 19.3053 72.8279 18.9438C72.8408 18.5957 72.7544 18.2511 72.5788 17.9501C72.393 17.6493 72.1444 17.392 71.8499 17.1957C71.4956 16.9535 71.111 16.7587 70.7059 16.616C70.2539 16.4412 69.7834 16.2848 69.276 16.1376C68.9531 16.0456 68.6394 15.9352 68.3534 15.8248C68.052 15.72 67.7664 15.5745 67.5046 15.3924C67.2454 15.2218 67.0279 14.9954 66.868 14.7299C66.68 14.4554 66.5744 14.133 66.5636 13.8007C66.5544 13.4237 66.6571 13.0524 66.8588 12.7334C67.0477 12.4574 67.2969 12.2278 67.5876 12.0618C67.8746 11.899 68.1862 11.7841 68.5102 11.7214C69.3604 11.5257 70.2506 11.5997 71.0565 11.933C71.5089 12.1438 71.9042 12.4592 72.2097 12.853C72.2743 12.853 72.2651 12.7794 72.2097 12.7426C71.9619 12.29 71.5688 11.9336 71.0934 11.7306C70.1813 11.3513 69.1683 11.2865 68.215 11.5466C67.8753 11.6332 67.5514 11.7729 67.2555 11.9606C66.9774 12.1577 66.7446 12.4118 66.5728 12.7058C66.3889 13.0404 66.3026 13.4197 66.3237 13.8007C66.313 14.1205 66.3862 14.4377 66.5359 14.7207C66.6771 14.9849 66.8719 15.2167 67.1079 15.4016C67.3684 15.6124 67.6572 15.7858 67.9659 15.9168C68.298 16.0548 68.6394 16.1836 68.9807 16.294C69.3221 16.4044 69.9033 16.5516 70.2539 16.6896C70.6476 16.8218 71.0252 16.9977 71.3794 17.2141C71.6977 17.4009 71.979 17.6441 72.2097 17.9317C72.4436 18.2345 72.5673 18.6076 72.5603 18.9898C72.5614 19.3534 72.4693 19.7112 72.2928 20.0294C72.1151 20.3326 71.8764 20.5958 71.5916 20.8023C71.3145 21.0188 71.0025 21.1867 70.669 21.2991C70.3084 21.4152 69.9317 21.4742 69.5527 21.4739C68.8833 21.4889 68.2198 21.3471 67.6153 21.0599C67.0888 20.806 66.6491 20.4027 66.3514 19.9006C66.3282 19.8604 66.2944 19.8272 66.2539 19.8045C66.2133 19.7819 66.1673 19.7706 66.1208 19.7718Z" fill="#034F75"/>
<path d="M76.5736 13.3223C76.798 12.9861 77.0612 12.6773 77.3578 12.4023C77.6493 12.1183 77.9747 11.8712 78.3265 11.6662C78.6805 11.4547 79.0625 11.2937 79.4613 11.1878C79.8767 11.0799 80.3052 11.0303 80.7344 11.0406C81.4025 11.0325 82.0647 11.1662 82.677 11.4326C83.2894 11.6991 83.8379 12.0924 84.2863 12.5863C84.7291 13.0744 85.0736 13.6429 85.3012 14.2608C85.5483 14.9166 85.6733 15.6119 85.6702 16.3125V21.4004C85.6702 21.5374 85.6173 21.6692 85.5226 21.7684C85.4256 21.857 85.2989 21.9061 85.1674 21.9061C85.0359 21.9061 84.9092 21.857 84.8122 21.7684C84.72 21.6682 84.6704 21.5363 84.6738 21.4004V16.2757C84.6751 15.7083 84.5783 15.145 84.3878 14.6104C84.2056 14.1116 83.9336 13.6501 83.5852 13.2487C83.2324 12.866 82.8097 12.5537 82.3397 12.3287C81.8393 12.087 81.2905 11.9611 80.7344 11.9607C80.1859 11.9577 79.6424 12.0654 79.1366 12.2772C78.6309 12.4891 78.1733 12.8008 77.7914 13.1935C77.4203 13.5794 77.126 14.0322 76.9242 14.5276C76.6988 15.0705 76.5798 15.6514 76.5736 16.2389V21.3452C76.5771 21.4811 76.5275 21.613 76.4352 21.7132C76.3893 21.7619 76.3334 21.8002 76.2713 21.8256C76.2093 21.851 76.1425 21.8628 76.0754 21.8604C76.0098 21.8627 75.9444 21.8508 75.8839 21.8253C75.8233 21.7999 75.7691 21.7616 75.7249 21.7132C75.6746 21.666 75.6347 21.609 75.6077 21.5456C75.5807 21.4822 75.5672 21.414 75.568 21.3452V7.54441C75.5702 7.40914 75.6238 7.27973 75.718 7.18237C75.8122 7.08501 75.94 7.02696 76.0754 7.01998C76.1432 7.01869 76.2104 7.03199 76.2725 7.05899C76.3346 7.08598 76.3901 7.12603 76.4352 7.17639C76.4818 7.22543 76.518 7.28325 76.5417 7.34646C76.5655 7.40966 76.5763 7.47697 76.5736 7.54441V13.3223Z" fill="#034F75"/>
<path d="M85.1537 22.2468C85.0401 22.2467 84.9277 22.2239 84.8231 22.1796C84.7185 22.1354 84.6239 22.0706 84.5448 21.9892C84.38 21.8187 84.2875 21.5913 84.2865 21.3544V16.2757C84.293 15.7463 84.2056 15.2199 84.0282 14.7208C83.865 14.2679 83.6177 13.8497 83.2994 13.488C82.9806 13.1429 82.5985 12.8619 82.1738 12.6599C81.7134 12.4625 81.2174 12.3607 80.7162 12.3607C80.2149 12.3607 79.719 12.4625 79.2585 12.6599C78.815 12.858 78.4116 13.1356 78.0684 13.4788C77.7262 13.838 77.4567 14.2597 77.275 14.7208C77.0869 15.2112 76.993 15.7324 76.9982 16.2573V21.3452C76.9997 21.5808 76.9106 21.808 76.7491 21.98C76.5785 22.1378 76.3544 22.2255 76.1218 22.2255C75.8891 22.2255 75.665 22.1378 75.4944 21.98C75.324 21.8087 75.2279 21.5774 75.2269 21.336V7.53524C75.2279 7.29388 75.324 7.06258 75.4944 6.89121C75.665 6.73343 75.8891 6.64575 76.1218 6.64575C76.3544 6.64575 76.5785 6.73343 76.7491 6.89121C76.9106 7.06321 76.9997 7.29043 76.9982 7.52604V12.2367C76.9982 12.1907 77.0905 12.1447 77.1366 12.0987C77.4496 11.7964 77.7963 11.531 78.1699 11.3074C78.5546 11.083 78.9671 10.9098 79.3969 10.7922C80.5616 10.4781 81.7992 10.5723 82.9027 11.059C83.5394 11.3499 84.1105 11.7661 84.5817 12.2827C85.0567 12.8229 85.426 13.447 85.6704 14.1228C85.93 14.8237 86.0612 15.5654 86.0579 16.3125V21.4004C86.066 21.5233 86.0477 21.6466 86.0043 21.7619C85.9608 21.8772 85.8931 21.9819 85.8058 22.069C85.7184 22.1561 85.6134 22.2236 85.4978 22.267C85.3821 22.3104 85.2586 22.3286 85.1353 22.3204L85.1537 22.2468ZM76.0941 7.36044C76.0616 7.3647 76.0319 7.38114 76.0111 7.40644C76.005 7.42101 76.0018 7.43665 76.0018 7.45244C76.0018 7.46823 76.005 7.48387 76.0111 7.49844V21.2992C76.0107 21.3184 76.0146 21.3375 76.0226 21.355C76.0306 21.3725 76.0424 21.388 76.0572 21.4004C76.0838 21.4111 76.1136 21.4111 76.1402 21.4004C76.2417 21.3452 76.2602 21.3176 76.2602 21.2624V16.0549C76.2728 15.4984 76.3789 14.948 76.5738 14.4264C76.7817 13.883 77.0953 13.3858 77.4964 12.9635C78.1245 12.3027 78.9421 11.8516 79.8373 11.6721C80.7324 11.4926 81.6613 11.5934 82.4967 11.9607C83.0145 12.2046 83.4786 12.5486 83.8621 12.9727C84.2661 13.3998 84.5799 13.9036 84.7847 14.454C84.9939 15.0448 85.097 15.6677 85.0892 16.2941V21.3728C85.0892 21.4372 85.0892 21.4556 85.0892 21.4648C85.0892 21.474 85.246 21.4648 85.2552 21.4648C85.2645 21.4648 85.2552 21.4648 85.2552 21.3728V16.2665C85.2606 15.6101 85.1449 14.9583 84.9139 14.3436C84.7016 13.7747 84.3892 13.2481 83.9913 12.7887C83.5837 12.3524 83.0949 11.9993 82.5521 11.7491C81.6137 11.3364 80.5614 11.2584 79.5722 11.5283C79.2071 11.6261 78.8566 11.7715 78.5297 11.9607C78.1962 12.154 77.8866 12.3856 77.6071 12.6507C77.3318 12.9136 77.0873 13.2069 76.8783 13.5248L76.1771 14.6196V7.50764C76.1847 7.49023 76.1887 7.47144 76.1887 7.45244C76.1887 7.43344 76.1847 7.41465 76.1771 7.39724L76.0941 7.36044Z" fill="#034F75"/>
<path d="M94.0288 12.1354C93.3944 12.1246 92.7651 12.2501 92.1836 12.5034C91.6234 12.7393 91.1155 13.0832 90.6891 13.5155C90.2571 13.9491 89.9126 14.4613 89.6742 15.0244C89.4226 15.6053 89.2938 16.2317 89.296 16.8645V21.3543C89.2994 21.4902 89.2498 21.6222 89.1576 21.7223C89.1147 21.7668 89.063 21.802 89.0059 21.8257C88.9488 21.8495 88.8874 21.8612 88.8255 21.8603C88.6833 21.8657 88.5446 21.8163 88.438 21.7223C88.3894 21.6744 88.3512 21.617 88.3258 21.5536C88.3004 21.4903 88.2883 21.4225 88.2904 21.3543V16.8645C88.2859 16.1022 88.4399 15.3472 88.7424 14.6472C89.0315 13.9643 89.4443 13.3405 89.9602 12.8071C90.4863 12.277 91.1137 11.8577 91.8054 11.5742C92.503 11.2679 93.2573 11.1112 94.0196 11.1142H94.1395C94.2078 11.1057 94.2771 11.1125 94.3424 11.1342C94.4077 11.1559 94.4673 11.1919 94.5168 11.2395C94.5664 11.2871 94.6046 11.3452 94.6287 11.4095C94.6528 11.4738 94.6622 11.5426 94.6561 11.611C94.6592 11.6779 94.6476 11.7447 94.6221 11.8067C94.5966 11.8687 94.5578 11.9243 94.5085 11.9698C94.4081 12.0618 94.2758 12.1113 94.1395 12.1078L94.0288 12.1354Z" fill="#034F75"/>
<path d="M88.8715 22.2468C88.6321 22.2507 88.4005 22.1616 88.2257 21.9984C88.0553 21.827 87.9592 21.5957 87.9582 21.3543V16.8645C87.9503 16.0515 88.1137 15.246 88.4379 14.5C89.0576 13.045 90.2133 11.8826 91.6669 11.2522C92.4094 10.9198 93.2148 10.7504 94.0287 10.7554H94.1486C94.2709 10.7522 94.3927 10.7734 94.5067 10.8176C94.6207 10.8619 94.7248 10.9283 94.8129 11.013C94.9688 11.1841 95.0544 11.4074 95.0527 11.6386C95.0529 11.7577 95.0285 11.8756 94.9808 11.9849C94.9332 12.0941 94.8635 12.1923 94.776 12.2735C94.6044 12.429 94.3804 12.5144 94.1486 12.5127H94.0287C93.4603 12.5091 92.8976 12.6251 92.3773 12.8531C91.3352 13.2972 90.5079 14.1289 90.0708 15.1716C89.8403 15.7061 89.7241 16.2827 89.7295 16.8645V21.3543C89.731 21.59 89.6419 21.8172 89.4804 21.9892C89.4014 22.0706 89.3068 22.1353 89.2022 22.1796C89.0976 22.2238 88.9851 22.2467 88.8715 22.2468ZM94.0287 11.519C93.3199 11.5156 92.6185 11.663 91.9714 11.9514C91.3389 12.2216 90.7654 12.6122 90.283 13.1015C89.7985 13.5927 89.4105 14.17 89.1391 14.8036C88.8594 15.4546 88.718 16.1563 88.7239 16.8645V21.3543C88.7239 21.4648 88.7977 21.4832 88.8715 21.4832C88.9453 21.4832 88.9638 21.4187 88.9638 21.3543V16.8645C88.9612 16.1784 89.0993 15.4989 89.3697 14.868C89.8849 13.6487 90.8537 12.6759 92.0728 12.1538C92.6905 11.889 93.3564 11.7543 94.0287 11.7582H94.1486C94.2224 11.7582 94.2501 11.7582 94.2501 11.7582C94.2501 11.611 94.2501 11.5926 94.2501 11.5834C94.2501 11.5742 94.1671 11.5834 94.1394 11.5834L94.0287 11.519Z" fill="#034F75"/>
<path d="M95.2374 16.5056C95.2312 15.7657 95.3788 15.0327 95.671 14.3526C95.9539 13.6982 96.3611 13.1046 96.8703 12.6045C97.3775 12.1041 97.9755 11.7045 98.6324 11.4269C99.3115 11.1422 100.041 10.9956 100.777 10.9956C101.514 10.9956 102.243 11.1422 102.922 11.4269C103.58 11.7025 104.179 12.1024 104.685 12.6045C105.185 13.1058 105.583 13.6996 105.856 14.3526C106.141 15.0347 106.285 15.7668 106.281 16.5056C106.286 17.2384 106.142 17.9647 105.856 18.6401C105.585 19.2978 105.186 19.8957 104.683 20.3993C104.179 20.903 103.581 21.3025 102.922 21.575C102.245 21.8664 101.515 22.0167 100.777 22.0167C100.04 22.0167 99.3098 21.8664 98.6324 21.575C97.9755 21.2974 97.3775 20.8978 96.8703 20.3974C96.3668 19.893 95.9658 19.2963 95.6894 18.6401C95.3904 17.968 95.2363 17.2408 95.2374 16.5056ZM96.243 16.5056C96.2425 17.1027 96.3617 17.6939 96.5935 18.2444C96.8097 18.7728 97.1226 19.2563 97.5161 19.6705C97.9226 20.09 98.4087 20.4247 98.9461 20.655C99.7787 21.0138 100.701 21.1118 101.591 20.9359C102.48 20.7601 103.295 20.3188 103.928 19.6705C104.551 19.0322 104.972 18.2244 105.136 17.3485C105.3 16.4727 105.201 15.568 104.851 14.7483C104.64 14.2145 104.326 13.727 103.928 13.313C103.517 12.903 103.032 12.5751 102.498 12.3469C101.937 12.1141 101.335 11.9942 100.727 11.9942C100.119 11.9942 99.5167 12.1141 98.9553 12.3469C97.8887 12.8021 97.0417 13.6535 96.5935 14.7207C96.3563 15.2857 96.237 15.893 96.243 16.5056Z" fill="#034F75"/>
<path d="M100.754 22.394C99.9667 22.3984 99.1874 22.2385 98.4658 21.9248C97.7756 21.6263 97.1492 21.1984 96.6207 20.6643C96.0864 20.1363 95.6575 19.5118 95.3568 18.8242C95.0451 18.0972 94.8845 17.3147 94.8845 16.5241C94.8845 15.7334 95.0451 14.951 95.3568 14.224C95.969 12.7869 97.1276 11.6507 98.5786 11.0643C100.03 10.4779 101.655 10.4892 103.097 11.0958C103.788 11.3933 104.415 11.8213 104.942 12.3563C105.473 12.8854 105.899 13.5097 106.197 14.1964C106.503 14.9249 106.66 15.7068 106.66 16.4965C106.66 17.2862 106.503 18.068 106.197 18.7966C105.899 19.4833 105.473 20.1076 104.942 20.6367C104.411 21.1695 103.785 21.5999 103.097 21.9064C102.358 22.2291 101.56 22.3951 100.754 22.394ZM100.754 11.3534C100.068 11.347 99.3894 11.485 98.7611 11.7582C98.1488 12.0231 97.5942 12.4043 97.1281 12.8807C96.6431 13.3629 96.2595 13.9368 95.9997 14.5687C95.7399 15.2007 95.6091 15.8779 95.6151 16.5609C95.6079 17.2445 95.7462 17.9219 96.021 18.5482C96.2805 19.1603 96.6565 19.7164 97.1281 20.1859C97.5982 20.6504 98.1523 21.0219 98.7611 21.2807C99.3931 21.5472 100.072 21.6845 100.758 21.6845C101.445 21.6845 102.124 21.5472 102.756 21.2807C103.365 21.0186 103.919 20.644 104.389 20.1767C104.857 19.706 105.229 19.15 105.487 18.539C106.015 17.2633 106.015 15.8308 105.487 14.5552C105.231 13.9358 104.854 13.373 104.379 12.8993C103.904 12.4256 103.34 12.0503 102.719 11.795C102.099 11.523 101.431 11.379 100.754 11.3718V11.3534ZM100.754 21.3727C100.093 21.3794 99.4387 21.2445 98.8349 20.9771C98.2543 20.7322 97.7276 20.3759 97.2849 19.9283C96.8485 19.4856 96.4954 18.9683 96.2424 18.401C95.9927 17.8001 95.8642 17.1561 95.8642 16.5057C95.8642 15.8553 95.9927 15.2112 96.2424 14.6104C96.4879 14.0308 96.8417 13.5032 97.2849 13.0555C97.7276 12.592 98.2574 12.22 98.8441 11.9606C100.074 11.4595 101.452 11.4595 102.682 11.9606C103.271 12.2175 103.803 12.5862 104.25 13.0463C104.688 13.4968 105.038 14.0239 105.284 14.6012C105.535 15.2049 105.663 15.8522 105.662 16.5057C105.658 17.1379 105.53 17.7632 105.284 18.3458C104.801 19.5269 103.869 20.4695 102.691 20.9679C102.083 21.2439 101.422 21.3881 100.754 21.3911V21.3727ZM100.754 12.3563C100.199 12.3538 99.6502 12.4633 99.1393 12.6783C98.6451 12.894 98.1995 13.2069 97.8293 13.5983C97.4384 13.976 97.125 14.426 96.9067 14.9232C96.6919 15.4296 96.582 15.9742 96.5838 16.5241C96.583 17.0679 96.6929 17.6063 96.9067 18.1066C97.1274 18.5997 97.4406 19.0463 97.8293 19.4222C98.1973 19.8162 98.6434 20.1295 99.1393 20.3423C99.6526 20.561 100.205 20.6737 100.763 20.6737C101.321 20.6737 101.874 20.561 102.387 20.3423C102.88 20.1255 103.326 19.8127 103.697 19.4222C104.07 19.0427 104.367 18.5963 104.573 18.1066C104.784 17.6057 104.891 17.0673 104.887 16.5241C104.892 15.9718 104.785 15.4242 104.573 14.914C104.363 14.4261 104.067 13.9803 103.697 13.5983C103.312 13.2118 102.853 12.9061 102.347 12.6991C101.842 12.4921 101.3 12.3881 100.754 12.3931V12.3563Z" fill="#034F75"/>
<path d="M107.636 16.5056C107.633 15.7651 107.784 15.0321 108.079 14.3526C108.642 13.0332 109.697 11.984 111.022 11.4269C111.701 11.1422 112.431 10.9956 113.167 10.9956C113.904 10.9956 114.633 11.1422 115.312 11.4269C116.634 11.9859 117.685 13.035 118.246 14.3526C118.526 15.036 118.67 15.7672 118.67 16.5056C118.673 17.2278 118.533 17.9435 118.258 18.6114C117.982 19.2794 117.577 19.8863 117.065 20.3974C116.562 20.8985 115.967 21.2984 115.312 21.575C114.635 21.8664 113.905 22.0167 113.167 22.0167C112.43 22.0167 111.7 21.8664 111.022 21.575C109.692 21.0216 108.634 19.9668 108.079 18.6401C107.783 17.9673 107.633 17.2401 107.636 16.5056ZM108.642 16.5056C108.64 17.1038 108.763 17.6959 109.002 18.2444C109.215 18.7742 109.528 19.2583 109.924 19.6705C110.339 20.0984 110.837 20.4381 111.387 20.6689C111.937 20.8998 112.529 21.0171 113.126 21.0138C113.724 21.0184 114.317 20.9017 114.869 20.6708C115.421 20.4399 115.92 20.0996 116.336 19.6705C116.95 19.0266 117.364 18.2191 117.528 17.3455C117.692 16.472 117.598 15.5699 117.259 14.7483C117.044 14.2167 116.731 13.7299 116.336 13.313C115.924 12.9049 115.439 12.5772 114.906 12.3469C114.342 12.112 113.737 11.9931 113.126 11.9973C112.521 11.9941 111.921 12.113 111.364 12.3469C110.827 12.5753 110.339 12.9031 109.924 13.313C109.526 13.727 109.213 14.2145 109.002 14.7483C108.761 15.3028 108.638 15.9012 108.642 16.5056Z" fill="#034F75"/>
<path d="M113.163 22.394C112.373 22.3986 111.59 22.2388 110.866 21.9248C109.454 21.3258 108.329 20.2046 107.729 18.7966C107.417 18.0696 107.257 17.2871 107.257 16.4965C107.257 15.7058 107.417 14.9234 107.729 14.1964C108.026 13.5067 108.455 12.8816 108.993 12.3563C109.525 11.8291 110.151 11.4048 110.838 11.105C111.919 10.6535 113.109 10.5323 114.259 10.7567C115.409 10.9811 116.466 11.541 117.296 12.3655C118.112 13.2002 118.665 14.2545 118.888 15.3987C119.111 16.5429 118.994 17.7272 118.551 18.8058C118.25 19.4912 117.825 20.1151 117.296 20.6459C116.764 21.1781 116.139 21.6084 115.451 21.9156C114.729 22.2289 113.95 22.3917 113.163 22.394ZM113.163 11.3534C112.477 11.3462 111.798 11.4842 111.17 11.7582C110.555 12.0231 109.997 12.4043 109.528 12.8807C109.056 13.348 108.683 13.9049 108.43 14.5184C108.156 15.1482 108.018 15.8284 108.024 16.5149C108.017 17.1985 108.155 17.8759 108.43 18.5022C108.69 19.112 109.062 19.6676 109.528 20.1399C110.005 20.6023 110.561 20.9761 111.17 21.2439C111.801 21.5081 112.479 21.6442 113.163 21.6442C113.847 21.6442 114.525 21.5081 115.156 21.2439C115.769 20.9842 116.326 20.6094 116.798 20.1399C117.264 19.6697 117.634 19.1135 117.886 18.5022C118.154 17.872 118.292 17.1947 118.292 16.5103C118.292 15.8259 118.154 15.1485 117.886 14.5184C117.634 13.9071 117.264 13.3509 116.798 12.8807C116.328 12.4162 115.774 12.0447 115.165 11.7858C114.533 11.512 113.852 11.3711 113.163 11.3718V11.3534ZM113.163 21.3728C112.499 21.3808 111.841 21.2458 111.235 20.9771C110.656 20.729 110.13 20.373 109.685 19.9283C109.251 19.4852 108.901 18.9679 108.651 18.401C108.4 17.8196 108.269 17.1939 108.264 16.5609C108.261 15.9063 108.393 15.2582 108.651 14.6564C108.894 14.0773 109.244 13.5495 109.685 13.1015C110.368 12.3941 111.249 11.9073 112.212 11.704C113.176 11.5006 114.179 11.59 115.091 11.9606C115.671 12.2076 116.197 12.5637 116.641 13.0095C117.107 13.4644 117.475 14.0088 117.724 14.6097C117.973 15.2106 118.097 15.8556 118.089 16.5057C118.089 17.1373 117.963 17.7625 117.72 18.3458C117.473 18.9269 117.119 19.4573 116.678 19.9099C116.232 20.3563 115.707 20.7153 115.128 20.9679C114.51 21.2466 113.841 21.3909 113.163 21.3912V21.3728ZM113.163 12.3563C112.618 12.3545 112.079 12.4601 111.575 12.667C111.072 12.8738 110.614 13.1778 110.229 13.5615C109.843 13.9396 109.53 14.3857 109.307 14.8772C109.093 15.3872 108.983 15.9345 108.984 16.4873C108.978 17.0316 109.088 17.5708 109.307 18.0698C109.527 18.5632 109.84 19.0099 110.229 19.3854C110.599 19.7772 111.045 20.0902 111.539 20.3055C112.304 20.633 113.151 20.7204 113.966 20.556C114.782 20.3916 115.529 19.9833 116.106 19.3854C116.861 18.6077 117.287 17.5699 117.296 16.4873C117.298 15.9344 117.188 15.3869 116.973 14.8772C116.774 14.3839 116.478 13.9354 116.102 13.5578C115.727 13.1801 115.279 12.8811 114.787 12.6783C114.272 12.4677 113.719 12.3643 113.163 12.3747V12.3563Z" fill="#034F75"/>
<path d="M134.594 21.3543C134.596 21.4224 134.584 21.4903 134.559 21.5536C134.533 21.6169 134.495 21.6743 134.447 21.7223C134.402 21.7675 134.349 21.803 134.29 21.8268C134.232 21.8505 134.169 21.8619 134.105 21.8603C133.972 21.8623 133.843 21.8129 133.745 21.7223C133.694 21.6763 133.653 21.6194 133.626 21.5558C133.599 21.4922 133.586 21.4234 133.589 21.3543V14.5459C133.583 14.1931 133.494 13.8465 133.33 13.5339C133.011 12.9209 132.48 12.4438 131.836 12.1906C131.513 12.0632 131.168 11.9977 130.821 11.9974C130.456 11.997 130.094 12.0722 129.76 12.2182C129.421 12.3574 129.109 12.5534 128.837 12.7978C128.586 13.0397 128.382 13.3269 128.238 13.6443C128.092 13.9617 128.016 14.307 128.016 14.6563V21.3543C128.018 21.4224 128.006 21.4903 127.981 21.5536C127.956 21.6169 127.917 21.6743 127.869 21.7223C127.773 21.8102 127.648 21.8591 127.518 21.8591C127.388 21.8591 127.263 21.8102 127.168 21.7223C127.117 21.6751 127.077 21.6181 127.05 21.5547C127.023 21.4914 127.01 21.4231 127.011 21.3543V14.5459C127.002 14.1956 126.921 13.8508 126.771 13.5339C126.619 13.2297 126.409 12.9579 126.153 12.7334C125.896 12.501 125.599 12.317 125.276 12.1906C124.95 12.0621 124.603 11.9965 124.252 11.9974C123.893 11.9919 123.538 12.0641 123.21 12.209C122.868 12.3338 122.555 12.5245 122.287 12.7702C122.033 13.0045 121.826 13.2857 121.678 13.5983C121.533 13.9097 121.454 14.2483 121.448 14.5919V21.3543C121.448 21.4913 121.395 21.6231 121.3 21.7223C121.209 21.8109 121.086 21.8604 120.959 21.8603C120.823 21.861 120.691 21.8119 120.59 21.7223C120.539 21.6751 120.499 21.6181 120.472 21.5547C120.445 21.4914 120.432 21.4231 120.433 21.3543V14.6195C120.431 14.1329 120.539 13.6521 120.746 13.2118C121.163 12.3361 121.889 11.6447 122.785 11.2705C123.236 11.0873 123.719 10.9935 124.206 10.9945C124.545 10.9948 124.883 11.0381 125.212 11.1233C125.537 11.2056 125.848 11.3358 126.134 11.5098C126.413 11.674 126.67 11.8718 126.9 12.0986C127.134 12.3186 127.333 12.573 127.49 12.853C127.654 12.5724 127.859 12.318 128.099 12.0986C128.331 11.8695 128.591 11.6715 128.874 11.5098C129.162 11.339 129.473 11.209 129.797 11.1233C130.122 11.0399 130.457 10.9966 130.793 10.9945C131.28 10.9921 131.763 11.0859 132.214 11.2705C133.085 11.6109 133.794 12.2687 134.198 13.1106C134.399 13.5413 134.515 14.0069 134.539 14.4815C134.545 14.5088 134.545 14.537 134.539 14.5643L134.594 21.3543Z" fill="#034F75"/>
<path d="M134.105 22.2468C133.876 22.2462 133.656 22.1609 133.487 22.0076C133.398 21.9231 133.327 21.8218 133.278 21.7097C133.229 21.5975 133.203 21.4767 133.201 21.3543V14.546C133.198 14.254 133.125 13.967 132.989 13.7087C132.858 13.4427 132.677 13.2051 132.454 13.0095C132.226 12.8125 131.967 12.654 131.688 12.5402C131.116 12.3152 130.479 12.3152 129.907 12.5402C129.624 12.6662 129.365 12.8406 129.142 13.0555C128.925 13.2652 128.747 13.5112 128.616 13.7823C128.496 14.0518 128.433 14.3431 128.431 14.638V21.3359C128.43 21.5728 128.338 21.8002 128.173 21.9707C128.004 22.1208 127.786 22.2037 127.559 22.2037C127.333 22.2037 127.115 22.1208 126.946 21.9707C126.856 21.8893 126.785 21.7897 126.738 21.6786C126.69 21.5675 126.667 21.4475 126.669 21.3267V14.5183C126.666 14.2264 126.593 13.9394 126.457 13.6811C126.333 13.416 126.158 13.1782 125.94 12.9819C125.715 12.7809 125.456 12.622 125.175 12.5126C124.603 12.2829 123.965 12.2829 123.394 12.5126C123.112 12.6244 122.855 12.7901 122.637 13.0003C122.416 13.2025 122.238 13.4464 122.112 13.7179C121.984 13.979 121.915 14.2647 121.909 14.5552V21.3083C121.908 21.5452 121.815 21.7726 121.65 21.9431C121.481 22.0957 121.261 22.1802 121.032 22.1802C120.804 22.1802 120.584 22.0957 120.414 21.9431C120.24 21.7733 120.141 21.5418 120.137 21.2991V14.6196C120.136 14.0757 120.256 13.5384 120.488 13.0463C120.716 12.5711 121.029 12.141 121.41 11.7766C121.794 11.4127 122.241 11.1226 122.73 10.921C123.579 10.5736 124.519 10.5154 125.405 10.7553C125.757 10.8482 126.093 10.994 126.402 11.1878C126.705 11.362 126.984 11.5754 127.232 11.8226C127.347 11.9352 127.455 12.0551 127.555 12.1814C127.662 12.0529 127.779 11.933 127.905 11.8226C128.158 11.5708 128.443 11.3542 128.754 11.1786C129.066 10.9936 129.401 10.8513 129.751 10.7553C130.439 10.5687 131.164 10.5621 131.855 10.7362C132.547 10.9102 133.182 11.259 133.699 11.749C134.084 12.0931 134.397 12.5088 134.622 12.9727C134.837 13.4298 134.965 13.9227 135 14.4263V21.3451C135.002 21.5807 134.912 21.808 134.751 21.98C134.579 22.1499 134.347 22.2457 134.105 22.2468ZM130.821 11.6202C131.216 11.6187 131.607 11.6937 131.974 11.841C132.704 12.1272 133.307 12.6661 133.671 13.3591C133.856 13.7249 133.957 14.1272 133.967 14.5368V21.3543C134.041 21.4739 134.068 21.4831 134.105 21.4831C134.142 21.4831 134.216 21.4187 134.216 21.3543V14.592C134.193 14.1428 134.083 13.7024 133.893 13.2947C133.719 12.9185 133.471 12.5807 133.164 12.301C132.862 12.0068 132.505 11.7753 132.112 11.6202C131.423 11.3417 130.662 11.2964 129.944 11.4914C129.659 11.5671 129.386 11.6817 129.132 11.8318C128.874 11.9788 128.635 12.1581 128.422 12.3654C128.207 12.5637 128.024 12.7933 127.878 13.0463L127.536 13.5983L127.213 13.0371C127.066 12.7927 126.89 12.5672 126.688 12.3654C126.273 11.9511 125.758 11.6501 125.193 11.4914C124.624 11.334 124.024 11.3286 123.452 11.4755C122.881 11.6225 122.358 11.9167 121.936 12.3286C121.618 12.6275 121.358 12.9833 121.171 13.3775C120.992 13.7673 120.901 14.1911 120.903 14.6196V21.3543C120.968 21.4739 120.995 21.4831 121.041 21.4831C121.088 21.4831 121.143 21.4095 121.143 21.3543V14.592C121.158 14.1912 121.252 13.7973 121.42 13.4327C121.592 13.0861 121.826 12.7742 122.112 12.5126C122.398 12.2418 122.733 12.0265 123.099 11.8778C123.856 11.569 124.704 11.569 125.461 11.8778C125.82 12.022 126.154 12.224 126.448 12.4758C126.735 12.7377 126.973 13.0494 127.149 13.3959C127.326 13.7604 127.42 14.1593 127.426 14.5644V21.3819C127.573 21.6211 127.564 21.5383 127.638 21.4739C127.644 21.4595 127.648 21.4438 127.648 21.4279C127.648 21.412 127.644 21.3964 127.638 21.3819V14.6564C127.639 14.2538 127.723 13.8559 127.887 13.4879C128.051 13.1254 128.282 12.7975 128.57 12.5218C128.863 12.2502 129.2 12.0294 129.566 11.8686C129.962 11.6987 130.39 11.614 130.821 11.6202Z" fill="#034F75"/>
<path d="M27.5392 2.99609e-05C25.8625 -0.00359977 24.2016 0.322607 22.6515 0.959975C21.1014 1.59734 19.6926 2.53335 18.5057 3.71442C17.3188 4.89549 16.3772 6.29841 15.7347 7.84288C15.0922 9.38735 14.7615 11.043 14.7615 12.7151V29H29.5227V2.99609e-05H27.5392Z" fill="#F4C657"/>
<path d="M14.6873 13.8007C14.6703 10.1347 13.1979 6.62452 10.5924 4.03821C7.98694 1.45191 4.46037 -3.95495e-05 0.784186 8.0798e-10L0 8.07982e-10V29H13.1743C10.6778 28.6355 8.39605 27.3872 6.74619 25.4834C5.09632 23.5796 4.18845 21.1473 4.18848 18.631V13.8007H14.6873Z" fill="#168891"/>
</svg>
