<svg width="30" height="29" viewBox="0 0 30 29" fill="none" xmlns="http://www.w3.org/2000/svg">
<path d="M27.5392 2.99609e-05C25.8625 -0.00359977 24.2016 0.322607 22.6515 0.959975C21.1014 1.59734 19.6926 2.53335 18.5057 3.71442C17.3188 4.89549 16.3772 6.29841 15.7347 7.84288C15.0922 9.38735 14.7615 11.043 14.7615 12.7151V29H29.5227V2.99609e-05H27.5392Z" fill="#F4C657"/>
<path d="M14.6873 13.8007C14.6703 10.1347 13.1979 6.62452 10.5924 4.03821C7.98694 1.45191 4.46037 -3.95495e-05 0.784186 8.0798e-10L0 8.07982e-10V29H13.1743C10.6778 28.6355 8.39605 27.3872 6.74619 25.4834C5.09632 23.5796 4.18845 21.1473 4.18848 18.631V13.8007H14.6873Z" fill="#168891"/>
</svg>
